<svg version="1" xmlns="http://www.w3.org/2000/svg" width="933.333" height="933.333" viewBox="0 0 700.000000 700.000000"><path d="M326.5 1.1c-29.8 3-57.3 11-84.5 24.4-49.5 24.3-91.8 68.7-113.4 119-2.1 4.9-4.5 10.3-5.2 12-1.6 3.8-8.1 25.3-9.5 31.4-1.3 5.6-2.8 14.2-3.5 19.6-.3 2.2-.7 4.9-.9 6-.2 1.1-.4 2.8-.4 3.7-.1 1-3.7 3.8-9.3 7.1-9.1 5.4-10.8 6.3-23.6 13.6-3.4 2-14.4 8.3-24.3 14.1-10 5.8-21 12.1-24.5 14.1-3.6 1.9-7 4.1-7.6 4.7-.7.7-1.5 1.2-1.9 1.2-.4 0-4.6 2.3-9.3 5.1l-8.6 5v215.7l6.1 3.6c3.3 2 6.2 3.6 6.5 3.6.2 0 2.1 1.1 4.2 2.3 2 1.3 5.7 3.5 8.2 4.9 2.5 1.4 13.2 7.6 23.8 13.7 10.6 6.1 20.7 12 22.5 13 1.7 1 17.4 10 34.7 20.1 17.3 10.1 33.1 19.2 35 20.3 1.9 1 15 8.6 29 16.7s27.1 15.7 29 16.8c10.1 5.7 50.3 29 55.5 32.2 3.4 2 6.9 3.9 7.8 4.3.9.3 4.2 2.2 7.2 4.2 3.1 1.9 5.7 3.5 5.9 3.5.3 0 3.7 1.9 7.8 4.3 4 2.4 9.3 5.5 11.8 6.9 2.5 1.4 14.4 8.3 26.5 15.3s23.5 13.6 25.3 14.6l3.3 1.9 12.2-7.1c6.7-4 14.2-8.3 16.7-9.7 4.4-2.5 9.6-5.5 13.5-7.9 1.1-.7 4.3-2.4 7-3.9 2.8-1.4 6.2-3.5 7.7-4.5 1.4-1.1 2.9-1.9 3.2-1.9.3 0 3.4-1.7 6.8-3.8 3.5-2.1 8.3-5 10.8-6.4 3.5-2 36.6-21 66.7-38.4 44.5-25.8 40.4-23.4 67.8-39.2 11-6.3 29.7-17.1 41.5-23.9 11.8-6.9 27.8-16.1 35.5-20.6 7.7-4.4 19.2-11.1 25.5-14.8 6.3-3.6 13.1-7.6 15.1-8.7 1.9-1.1 7.2-4.1 11.7-6.7l8.2-4.8-.2-108-.3-107.9-20.5-11.9c-11.3-6.5-22.7-13.2-25.5-14.8-2.7-1.6-6.6-3.8-8.5-4.9-1.9-1.1-14.7-8.4-28.5-16.4l-24.9-14.5-1.8-11.9c-7.6-51.5-31.1-98.5-67.3-134.9-14.2-14.3-18.9-18.3-34.1-29-30-21.1-65.3-35.3-101.9-41-11.9-1.9-47.5-2.7-60-1.4z"/></svg>